<?xml version="1.0" encoding="utf-8"?>
<svg version="1.1" xmlns="http://www.w3.org/2000/svg" xmlns:xlink="http://www.w3.org/1999/xlink" height="200" width="200">
  <defs>
    <rect id="rect-1" opacity="1" x="0" y="0" width="200" height="200"/>
    <path id="path-2" opacity="1" fill-rule="evenodd" d="M136.31719882940004,83.93996343078067 C125.07243470188274,107.86893662621797 96.56534678103806,118.14829530873442 72.64483583881187,106.89955357071622 C48.724324710428775,95.6508113671411 38.44860105237867,67.13363891917146 49.69336448180759,43.20466525817724 "/>
    <radialGradient id="radialGradient-3" cx="0.02524" cy="-0.00311" r="1.6322145830129078">
      <stop offset="1" stop-color="rgb(0,107,184)" stop-opacity="1"/>
      <stop offset="0.47490000000000004" stop-color="rgb(25,159,255)" stop-opacity="1"/>
      <stop offset="0.3862" stop-color="rgb(32,167,255)" stop-opacity="1"/>
      <stop offset="0.2484" stop-color="rgb(52,189,255)" stop-opacity="1"/>
      <stop offset="0" stop-color="rgb(0,200,201)" stop-opacity="1"/>
    </radialGradient>
    <path id="path-4" opacity="1" fill-rule="evenodd" d="M136.3585722016387,83.88409660204505 C122.5774732919292,102.65036633943147 96.20531001803059,106.70278873768166 77.4291396538014,92.93936278681741 C58.65296910341531,79.17593641695197 54.5703102115845,52.79932888673505 68.30630921358248,34 "/>
    <radialGradient id="radialGradient-5" cx="-0.01405" cy="-0.02941" r="1.911748035751574">
      <stop offset="1" stop-color="rgb(0,107,184)" stop-opacity="1"/>
      <stop offset="0.8248000000000001" stop-color="rgb(2,111,189)" stop-opacity="1"/>
      <stop offset="0.6096" stop-color="rgb(7,122,204)" stop-opacity="1"/>
      <stop offset="0.37439999999999996" stop-color="rgb(16,140,229)" stop-opacity="1"/>
      <stop offset="0.1818" stop-color="rgb(25,159,255)" stop-opacity="1"/>
    </radialGradient>
    <path id="path-6" opacity="1" fill-rule="evenodd" d="M136.6151459334652,37.2704918010249 C156.84750933052908,37.2704918010249 173.2490927736944,53.67787765548719 173.2490927736944,73.91741289194209 L163.01387160806624,78.18413225342113 C160.30755764813188,80.91504519149979 158.8040940786187,84.61440969664012 158.8378111572904,88.45968696502385 L159.00142562498098,107.36701167849486 C159.0015676514286,123.0257386092621 152.783422531079,138.0431597652211 141.71494639974424,149.11556581463003 C130.64647026840947,160.18795765636963 115.63437417051969,166.40820312499977 99.98118489059122,166.40820312499977 L99.98118489059122,73.91741289194209 C99.98118489059122,53.67787765548719 116.38276833375654,37.2704918010249 136.6151459334652,37.2704918010249 L150.5712327851571,61.26582440489888 C150.5712327851571,63.75547691136737 152.58866166341915,65.77380419798808 155.07743371349093,65.77393206701139 L158.26427995639784,64.45362757086275 C159.10947934635163,63.6081362773639 159.58424535554968,62.46137135732398 159.58410332910202,61.26566812053706 C159.58398970794394,58.77600851023395 157.56637619529988,56.75786592331353 155.07758994258336,56.75786592331353 C152.5888178925116,56.75786592331353 150.5712327851571,58.77616479459574 150.5712327851571,61.26582440489888 L136.6151459334652,37.2704918010249Z"/>
    <linearGradient id="linearGradient-7" x1="0.52028" y1="0.02871" x2="0.42951" y2="1.1238">
      <stop offset="1" stop-color="rgb(2,118,227)" stop-opacity="1"/>
      <stop offset="0.80661" stop-color="rgb(12,124,230)" stop-opacity="1"/>
      <stop offset="0.4954" stop-color="rgb(9,126,209)" stop-opacity="1"/>
      <stop offset="0.1483" stop-color="rgb(20,148,240)" stop-opacity="1"/>
      <stop offset="0" stop-color="rgb(25,159,255)" stop-opacity="1"/>
    </linearGradient>
    <path id="path-8" opacity="1" fill-rule="evenodd" d="M136.3171988294,83.93996343078061 C136.3171988294,114.13775347864589 111.8457101258524,138.6178994952511 81.6585994147,138.6178994952511 C51.471488517390696,138.6178994952511 27,114.13775347864589 27,83.93996343078061 "/>
    <radialGradient id="radialGradient-9" cx="0.04865" cy="-0.10314" r="3.588170934724264">
      <stop offset="1" stop-color="rgb(0,107,184)" stop-opacity="1"/>
      <stop offset="0.7398" stop-color="rgb(25,159,255)" stop-opacity="1"/>
      <stop offset="0.5162" stop-color="rgb(52,189,255)" stop-opacity="1"/>
      <stop offset="0.2748" stop-color="rgb(75,214,255)" stop-opacity="1"/>
      <stop offset="0" stop-color="rgb(0,200,201)" stop-opacity="1"/>
    </radialGradient>
    <path id="path-10" opacity="1" fill-rule="evenodd" d="M136.3171988294,83.93996343078062 C145.81566458512725,101.01284487677938 145.48525143587813,121.85850405089369 135.45047042787047,138.6215559791919 C125.41568941986282,155.3846074419332 107.20176363788349,165.5171737041622 87.6723475178707,165.20094371011615 C68.14293181671098,164.8847137160701 50.26637326134118,154.1677524918518 40.779194524566655,137.08859161430314 "/>
    <radialGradient id="radialGradient-11" cx="-0.01142" cy="0.60888" r="2.245134740945407">
      <stop offset="1" stop-color="rgb(0,107,184)" stop-opacity="1"/>
      <stop offset="0.7859" stop-color="rgb(2,111,189)" stop-opacity="1"/>
      <stop offset="0.5229" stop-color="rgb(7,122,204)" stop-opacity="1"/>
      <stop offset="0.2353" stop-color="rgb(16,140,229)" stop-opacity="1"/>
      <stop offset="0" stop-color="rgb(25,159,255)" stop-opacity="1"/>
    </radialGradient>
    <path id="path-12" opacity="1" fill-rule="evenodd" d="M136.31719882940004,83.93996343078061 C141.52957961672544,102.7658291077208 136.3060903814589,122.94340201705832 122.61436865980718,136.87198567704309 C108.92264693815545,150.80056933702787 88.84279137605265,156.36408097781842 69.938688960154,151.466798960863 C51.03458659079455,146.56951694390753 36.17822054319364,131.95545567536058 30.965840174721272,113.12958999842039 "/>
    <radialGradient id="radialGradient-13" cx="-0.16015999999999997" cy="0.43492" r="2.634001044191137">
      <stop offset="1" stop-color="rgb(0,107,184)" stop-opacity="1"/>
      <stop offset="0.8248000000000001" stop-color="rgb(2,111,189)" stop-opacity="1"/>
      <stop offset="0.6096" stop-color="rgb(7,122,204)" stop-opacity="1"/>
      <stop offset="0.37439999999999996" stop-color="rgb(16,140,229)" stop-opacity="1"/>
      <stop offset="0.1818" stop-color="rgb(25,159,255)" stop-opacity="1"/>
    </radialGradient>
    <path id="path-14" opacity="1" fill-rule="evenodd" d="M99.98118591318163,166.40820167013453 C133.1203728311394,163.65210478584217 144.45839877593926,137.4772850752315 144.45839877593926,112.31174618142107 L144.45839877593926,100.09362418124253 C144.45839877593926,79.0189803772911 157.10534046226388,73.91740779991346 173.24910000000006,73.91740779991346 C169.4050418112625,73.91740779991346 165.72019245435172,75.45321299304338 163.01387500942917,78.18412869572988 C160.3075570991144,80.9150442121936 158.8041050644212,84.61441292735049 158.83780970293952,88.4596829868765 L159.00144162284002,107.36701972571878 C159.0015649517899,123.02574460148875 152.78341842799173,138.04316483906405 141.71494814769213,149.1155596732798 "/>
    <linearGradient id="linearGradient-15" x1="0.63397" y1="-0.09286" x2="0.36405" y2="1.10164">
      <stop offset="1" stop-color="rgb(0,107,184)" stop-opacity="1"/>
      <stop offset="0.7916" stop-color="rgb(2,112,191)" stop-opacity="1"/>
      <stop offset="0.4954" stop-color="rgb(9,126,209)" stop-opacity="1"/>
      <stop offset="0.1483" stop-color="rgb(20,148,240)" stop-opacity="1"/>
      <stop offset="0" stop-color="rgb(25,159,255)" stop-opacity="1"/>
    </linearGradient>
  </defs>
  <g>
    <g opacity="1">
      <use xlink:href="#rect-1" fill="rgb(255,255,255)" fill-opacity="1"/>
    </g>
    <g opacity="1">
      <g opacity="1">
        <g opacity="1">
          <g opacity="1">
            <use xlink:href="#path-2" fill="url(#radialGradient-3)"/>
          </g>
          <g opacity="0.25">
            <use xlink:href="#path-4" fill="url(#radialGradient-5)"/>
          </g>
          <g opacity="1">
            <use xlink:href="#path-6" fill="url(#linearGradient-7)"/>
          </g>
          <g opacity="1">
            <use xlink:href="#path-8" fill="url(#radialGradient-9)"/>
          </g>
          <g opacity="0.25">
            <use xlink:href="#path-10" fill="url(#radialGradient-11)"/>
          </g>
          <g opacity="0.25">
            <use xlink:href="#path-12" fill="url(#radialGradient-13)"/>
          </g>
          <g opacity="1">
            <use xlink:href="#path-14" fill="url(#linearGradient-15)"/>
          </g>
        </g>
      </g>
    </g>
  </g>
</svg>